<?xml version="1.0" encoding="iso-8859-1"?>
<!-- Generator: Adobe Illustrator 19.0.0, SVG Export Plug-In . SVG Version: 6.00 Build 0)  -->
<svg version="1.1" id="Layer_1" xmlns="http://www.w3.org/2000/svg" fill="#4abfcb" xmlns:xlink="http://www.w3.org/1999/xlink" x="0px" y="0px"
	 viewBox="0 0 472.615 472.615" style="enable-background:new 0 0 472.615 472.615;" xml:space="preserve">
<g>
	<g>
		<polygon points="228.106,63.723 167.385,0 0,0 0,130.837 472.615,130.837 472.615,63.723 		"/>
	</g>
</g>
<g>
	<g>
		<path d="M266.17,150.529h-29.874v19.692h29.874v19.692h-29.874v19.692h29.874v19.692h-29.874v19.692h29.874v19.692h-29.874v19.692
			H206.43v-19.692h29.866v-19.692H206.43v-19.692h29.866v-19.692H206.43v-19.692h29.866v-19.692H206.43v-19.692H0v160.122v161.964
			h236.308h236.308V310.651V150.529H266.17z M265.831,355.043c0,16.344-13.194,29.538-29.538,29.538
			c-16.246,0-29.539-13.195-29.539-29.538v-53.27h59.077V355.043z"/>
	</g>
</g>
<g>
</g>
<g>
</g>
<g>
</g>
<g>
</g>
<g>
</g>
<g>
</g>
<g>
</g>
<g>
</g>
<g>
</g>
<g>
</g>
<g>
</g>
<g>
</g>
<g>
</g>
<g>
</g>
<g>
</g>
</svg>
