<?xml version="1.0" encoding="utf-8"?>
<!-- Svg Vector Icons : http://www.onlinewebfonts.com/icon -->
<!DOCTYPE svg PUBLIC "-//W3C//DTD SVG 1.1//EN" "http://www.w3.org/Graphics/SVG/1.1/DTD/svg11.dtd">
<svg version="1.1" xmlns="http://www.w3.org/2000/svg" xmlns:xlink="http://www.w3.org/1999/xlink" x="0px" y="0px" viewBox="0 0 1000 1000" enable-background="new 0 0 1000 1000" xml:space="preserve">
<metadata> Svg Vector Icons : http://www.onlinewebfonts.com/icon </metadata>
<g><path d="M490.1,178.4C178.6,178.4,10,499.7,10,499.7s218.8,321.8,493.5,321.8c274.7,0,486.5-324.6,486.5-324.6S801.6,178.4,490.1,178.4z M500,735c-129.8,0-235-105.2-235-235c0-129.8,105.2-235,235-235c129.8,0,235,105.2,235,235C735,629.8,629.8,735,500,735z"/><path d="M500,351.1c-79.8,0-144.9,62.8-148.8,141.6c-0.1,2.7-0.2,5.4-0.2,8.2c0,82.3,66.7,148.9,148.9,148.9c79.8,0,144.9-62.8,148.8-141.6c0.1-2.7,0.2-5.4,0.2-8.2C648.9,417.7,582.3,351.1,500,351.1z"/></g>
</svg>