<?xml version="1.0" standalone="no"?>
<!DOCTYPE svg PUBLIC "-//W3C//DTD SVG 20010904//EN"
 "http://www.w3.org/TR/2001/REC-SVG-20010904/DTD/svg10.dtd">
<svg version="1.0" xmlns="http://www.w3.org/2000/svg"
 width="1280.000000pt" height="1076.000000pt" viewBox="0 0 1280.000000 1076.000000"
 preserveAspectRatio="xMidYMid meet">
<metadata>
Created by potrace 1.15, written by Peter Selinger 2001-2017
</metadata>
<g transform="translate(0.000000,1076.000000) scale(0.100000,-0.100000)"
fill="#000000" stroke="none">
<path d="M4591 10573 c101 -104 715 -723 1364 -1378 649 -654 1469 -1482 1824
-1840 354 -357 665 -671 692 -697 l48 -48 -2557 0 c-1406 0 -3323 -3 -4260 -7
l-1702 -6 2 -1201 3 -1201 4282 -5 4282 -5 -2074 -2090 -2073 -2090 1506 -3
1507 -2 1405 1407 c773 775 1981 1985 2685 2691 l1280 1283 -2695 2689 -2695
2689 -1505 1 -1504 0 185 -187z"/>
</g>
</svg>
