<?xml version="1.0" encoding="utf-8"?>
<!-- Svg Vector Icons : http://www.onlinewebfonts.com/icon -->
<!DOCTYPE svg PUBLIC "-//W3C//DTD SVG 1.1//EN" "http://www.w3.org/Graphics/SVG/1.1/DTD/svg11.dtd">
<svg version="1.1" xmlns="http://www.w3.org/2000/svg" xmlns:xlink="http://www.w3.org/1999/xlink" x="0px" y="0px" viewBox="0 0 1000 1000" enable-background="new 0 0 1000 1000" xml:space="preserve">
<metadata> Svg Vector Icons : http://www.onlinewebfonts.com/icon </metadata>
<g><g><path d="M41.3,243.3c26.6,14.3,394.6,212,408.3,219.4c13.7,7.4,31.5,10.8,49.3,10.8c17.9,0,35.6-3.5,49.3-10.8C562,455.4,930,257.6,956.6,243.3c26.6-14.3,51.8-70,2.9-70H38.4C-10.5,173.3,14.7,229,41.3,243.3z M968.9,363.3C938.7,379,566.7,572.8,548.2,582.5c-18.5,9.7-31.5,10.8-49.3,10.8c-17.9,0-30.8-1.1-49.3-10.8C431.1,572.8,61.2,379,31,363.2c-21.2-11.1-21,1.9-21,11.9c0,10,0,397.1,0,397.1c0,22.9,30.8,54.4,54.4,54.4h871.1c23.6,0,54.4-31.6,54.4-54.4c0,0,0-387,0-397C990,365.2,990.2,352.2,968.9,363.3L968.9,363.3z"/></g></g>
</svg>